<?xml version="1.0" encoding="UTF-8" standalone="no"?>
<!DOCTYPE svg PUBLIC "-//W3C//DTD SVG 1.1//EN" "http://www.w3.org/Graphics/SVG/1.1/DTD/svg11.dtd">
<!-- Created with Vectornator (http://vectornator.io/) -->
<svg height="100%" stroke-miterlimit="10" style="fill-rule:nonzero;clip-rule:evenodd;stroke-linecap:round;stroke-linejoin:round;" version="1.1" viewBox="0 0 319.111 308.667" width="100%" xml:space="preserve" xmlns="http://www.w3.org/2000/svg" xmlns:vectornator="http://vectornator.io" xmlns:xlink="http://www.w3.org/1999/xlink">
<defs>
<filter color-interpolation-filters="sRGB" filterUnits="userSpaceOnUse" height="72.5447" id="Filter" width="106.635" x="144.831" y="93.2494">
<feDropShadow dx="-3.67321e-05" dy="10" flood-color="#000000" flood-opacity="0.333" in="SourceGraphic" result="Shadow" stdDeviation="5"/>
</filter>
<filter color-interpolation-filters="sRGB" filterUnits="userSpaceOnUse" height="75.0605" id="Filter_2" width="101.84" x="76.4674" y="89.2096">
<feDropShadow dx="-3.67321e-05" dy="10" flood-color="#000000" flood-opacity="0.333" in="SourceGraphic" result="Shadow" stdDeviation="5"/>
</filter>
<filter color-interpolation-filters="sRGB" filterUnits="userSpaceOnUse" height="78.1086" id="Filter_3" width="104.888" x="76.6851" y="85.2906">
<feDropShadow dx="-3.67321e-05" dy="10" flood-color="#000000" flood-opacity="0.333" in="SourceGraphic" result="Shadow" stdDeviation="5"/>
</filter>
<filter color-interpolation-filters="sRGB" filterUnits="userSpaceOnUse" height="70.7061" id="Filter_4" width="108.372" x="145.267" y="92.04">
<feDropShadow dx="-3.67321e-05" dy="10" flood-color="#000000" flood-opacity="0.333" in="SourceGraphic" result="Shadow" stdDeviation="5"/>
</filter>
<filter color-interpolation-filters="sRGB" filterUnits="userSpaceOnUse" height="79.1972" id="Filter_5" width="36.0886" x="74.5079" y="84.6375">
<feDropShadow dx="-3.67321e-05" dy="10" flood-color="#000000" flood-opacity="0.333" in="SourceGraphic" result="Shadow" stdDeviation="5"/>
</filter>
<filter color-interpolation-filters="sRGB" filterUnits="userSpaceOnUse" height="71.6387" id="Filter_6" width="35.3095" x="218.87" y="92.1346">
<feDropShadow dx="-3.67321e-05" dy="10" flood-color="#000000" flood-opacity="0.333" in="SourceGraphic" result="Shadow" stdDeviation="5"/>
</filter>
<filter color-interpolation-filters="sRGB" filterUnits="userSpaceOnUse" height="62.6584" id="Filter_7" width="97.8023" x="75.7849" y="130.722">
<feDropShadow dx="-3.67321e-05" dy="10" flood-color="#000000" flood-opacity="0.333" in="SourceGraphic" result="Shadow" stdDeviation="5"/>
</filter>
<filter color-interpolation-filters="sRGB" filterUnits="userSpaceOnUse" height="67.5066" id="Filter_8" width="110.39" x="143.686" y="127.099">
<feDropShadow dx="-3.67321e-05" dy="10" flood-color="#000000" flood-opacity="0.333" in="SourceGraphic" result="Shadow" stdDeviation="5"/>
</filter>
<filter color-interpolation-filters="sRGB" filterUnits="userSpaceOnUse" height="30.161" id="Filter_9" width="53.675" x="134.623" y="164.348">
<feDropShadow dx="-3.67321e-05" dy="10" flood-color="#000000" flood-opacity="0.333" in="SourceGraphic" result="Shadow" stdDeviation="5"/>
</filter>
<filter color-interpolation-filters="sRGB" filterUnits="userSpaceOnUse" height="81.5428" id="Filter_10" width="129.036" x="146.521" y="65.3613">
<feDropShadow dx="-3.67321e-05" dy="10" flood-color="#000000" flood-opacity="0.333" in="SourceGraphic" result="Shadow" stdDeviation="5"/>
</filter>
<filter color-interpolation-filters="sRGB" filterUnits="userSpaceOnUse" height="87.353" id="Filter_11" width="118.936" x="60.077" y="57.8789">
<feDropShadow dx="-3.67321e-05" dy="10" flood-color="#000000" flood-opacity="0.333" in="SourceGraphic" result="Shadow" stdDeviation="5"/>
</filter>
<filter color-interpolation-filters="sRGB" filterUnits="userSpaceOnUse" height="76.8049" id="Filter_12" width="118.61" x="61.0625" y="15.8215">
<feDropShadow dx="-3.67321e-05" dy="10" flood-color="#000000" flood-opacity="0.333" in="SourceGraphic" result="Shadow" stdDeviation="5"/>
</filter>
<filter color-interpolation-filters="sRGB" filterUnits="userSpaceOnUse" height="83.7826" id="Filter_13" width="129.88" x="145.352" y="16.1541">
<feDropShadow dx="-3.67321e-05" dy="10" flood-color="#000000" flood-opacity="0.333" in="SourceGraphic" result="Shadow" stdDeviation="5"/>
</filter>
<filter color-interpolation-filters="sRGB" filterUnits="userSpaceOnUse" height="99.0334" id="Filter_14" width="41.366" x="241.96" y="65.9456">
<feDropShadow dx="-3.67321e-05" dy="10" flood-color="#000000" flood-opacity="0.333" in="SourceGraphic" result="Shadow" stdDeviation="5"/>
</filter>
<filter color-interpolation-filters="sRGB" filterUnits="userSpaceOnUse" height="114.052" id="Filter_15" width="184.641" x="79.5804" y="24.8405">
<feDropShadow dx="-3.67321e-05" dy="10" flood-color="#000000" flood-opacity="0.333" in="SourceGraphic" result="Shadow" stdDeviation="5"/>
</filter>
<filter color-interpolation-filters="sRGB" filterUnits="userSpaceOnUse" height="71.9545" id="Filter_16" width="106.757" x="72.6948" y="22.3711">
<feDropShadow dx="-3.67321e-05" dy="10" flood-color="#000000" flood-opacity="0.333" in="SourceGraphic" result="Shadow" stdDeviation="5"/>
</filter>
<filter color-interpolation-filters="sRGB" filterUnits="userSpaceOnUse" height="123.347" id="Filter_17" width="317.176" x="4.31249" y="162.12">
<feDropShadow dx="-3.67321e-05" dy="10" flood-color="#000000" flood-opacity="0.333" in="SourceGraphic" result="Shadow" stdDeviation="5"/>
</filter>
<filter color-interpolation-filters="sRGB" filterUnits="userSpaceOnUse" height="85.2122" id="Filter_18" width="168.028" x="80.5985" y="100.117">
<feDropShadow dx="-3.67321e-05" dy="10" flood-color="#000000" flood-opacity="0.333" in="SourceGraphic" result="Shadow" stdDeviation="5"/>
</filter>
</defs>
<clipPath id="ArtboardFrame">
<rect height="308.667" width="319.111" x="0" y="0"/>
</clipPath>
<g clip-path="url(#ArtboardFrame)" id="Layer-2" vectornator:layerName="Layer 2">
<path d="M15.403-20.0218L309.25-20.0218C323.057-20.0218 334.25-8.82895 334.25 4.97817L334.25 297.095C334.25 310.902 323.057 322.095 309.25 322.095L15.403 322.095C1.59583 322.095-9.59705 310.902-9.59705 297.095L-9.59705 4.97817C-9.59705-8.82895 1.59583-20.0218 15.403-20.0218Z" fill="#005f50" fill-rule="nonzero" opacity="1" stroke="none"/>
</g>
<g clip-path="url(#ArtboardFrame)" id="Layer-1" vectornator:layerName="Layer 1">
<path d="M230.913 102.37C228.603 104.681 226.253 105.92 223.728 107.813C220.076 110.553 217.097 114.093 213.278 116.958C210.755 118.85 207.282 120.173 204.569 121.53C199.99 123.819 195.471 126.406 190.853 128.714C187.56 130.361 184.335 131.864 181.055 133.504C179.46 134.302 177.601 134.469 176.048 135.246C174.354 136.093 172.45 136.609 170.823 137.423C170.123 137.773 168.645 138.294 168.645 138.294C168.645 138.294 169.417 138.267 169.734 138.076C171.188 137.204 172.452 136.097 173.871 135.246C177.319 133.177 181.29 132.457 184.539 130.021C189.122 126.584 195.119 125.46 199.779 121.965C205.101 117.974 211.424 115.218 216.979 111.515C221.322 108.619 226.544 106.606 230.478 103.459C230.818 103.187 234.12 101.163 233.961 100.846C233.864 100.652 233.522 100.804 233.308 100.846C231.401 101.228 229.837 102.742 228.301 103.894C225.293 106.15 221.325 107.221 218.503 109.337C216.244 111.032 213.405 112.866 210.883 114.127C208.45 115.344 204.768 116.323 202.827 118.264C201.661 119.43 199.559 121.095 197.82 121.53C192.707 122.808 187.945 126.141 183.233 128.497C176.407 131.91 169.314 134.803 162.331 138.294" fill="#000000" fill-rule="nonzero" filter="url(#Filter)" stroke="#000000" stroke-linecap="round" stroke-linejoin="round" stroke-width="10" vectornator:shadowAngle="1.5708" vectornator:shadowColor="#000000" vectornator:shadowOffset="10" vectornator:shadowOpacity="0.333" vectornator:shadowRadius="10"/>
<path d="M93.9674 96.7096C98.5167 98.9843 101.852 103.222 105.942 106.289C110.437 109.66 115.965 112.129 120.747 114.998C122.444 116.016 124.53 116.397 126.19 117.393C128.505 118.782 130.369 120.771 132.722 122.183C134.704 123.372 137.05 123.661 139.035 124.795C142.608 126.837 146.029 129.49 149.704 131.327C152.689 132.819 158.587 134.55 160.807 136.77" fill="#000000" fill-rule="nonzero" filter="url(#Filter_2)" stroke="#000000" stroke-linecap="round" stroke-linejoin="round" stroke-width="10" vectornator:shadowAngle="1.5708" vectornator:shadowColor="#000000" vectornator:shadowOffset="10" vectornator:shadowOpacity="0.333" vectornator:shadowRadius="10"/>
<path d="M94.1851 92.7906L164.073 135.899" fill="#000000" fill-rule="nonzero" filter="url(#Filter_3)" stroke="#000000" stroke-linecap="round" stroke-linejoin="round" stroke-width="10" vectornator:shadowAngle="1.5708" vectornator:shadowColor="#000000" vectornator:shadowOffset="10" vectornator:shadowOpacity="0.333" vectornator:shadowRadius="10"/>
<path d="M162.767 135.246L236.139 99.54" fill="#000000" fill-rule="nonzero" filter="url(#Filter_4)" stroke="#000000" stroke-linecap="round" stroke-linejoin="round" stroke-width="10" vectornator:shadowAngle="1.5708" vectornator:shadowColor="#000000" vectornator:shadowOffset="10" vectornator:shadowOpacity="0.333" vectornator:shadowRadius="10"/>
<path d="M92.0079 92.1375L93.0965 136.335" fill="#000000" fill-rule="nonzero" filter="url(#Filter_5)" stroke="#000000" stroke-linecap="round" stroke-linejoin="round" stroke-width="10" vectornator:shadowAngle="1.5708" vectornator:shadowColor="#000000" vectornator:shadowOffset="10" vectornator:shadowOpacity="0.333" vectornator:shadowRadius="10"/>
<g opacity="1">
<path d="M236.37 99.6346L236.679 136.273" fill="#000000" fill-rule="nonzero" filter="url(#Filter_6)" stroke="#000000" stroke-linecap="round" stroke-linejoin="round" stroke-width="10" vectornator:shadowAngle="1.5708" vectornator:shadowColor="#000000" vectornator:shadowOffset="10" vectornator:shadowOpacity="0.333" vectornator:shadowRadius="10"/>
</g>
<path d="M88.5232 135.54C90.8036 130.545 108.843 133.889 128.815 143.008C148.787 152.127 163.129 163.568 160.849 168.563C158.569 173.557 140.529 170.213 120.557 161.094C100.585 151.975 86.2429 140.534 88.5232 135.54Z" fill="#000000" fill-rule="nonzero" filter="url(#Filter_7)" stroke="none" vectornator:shadowAngle="1.5708" vectornator:shadowColor="#000000" vectornator:shadowOffset="10" vectornator:shadowOpacity="0.333" vectornator:shadowRadius="10"/>
<path d="M156.521 166.624C153.592 158.756 170.182 145.317 193.577 136.607C216.971 127.896 238.311 127.213 241.24 135.081C244.17 142.949 227.58 156.388 204.185 165.099C180.791 173.809 159.451 174.492 156.521 166.624Z" fill="#000000" fill-rule="nonzero" filter="url(#Filter_8)" stroke="none" vectornator:shadowAngle="1.5708" vectornator:shadowColor="#000000" vectornator:shadowOffset="10" vectornator:shadowOpacity="0.333" vectornator:shadowRadius="10"/>
<path d="M147.124 168.455C147.214 167.136 153.705 166.501 161.623 167.039C169.541 167.576 175.887 169.081 175.797 170.401C175.708 171.72 169.216 172.355 161.298 171.817C153.381 171.28 147.034 169.775 147.124 168.455Z" fill="#000000" fill-rule="nonzero" filter="url(#Filter_9)" stroke="none" vectornator:shadowAngle="1.5708" vectornator:shadowColor="#000000" vectornator:shadowOffset="10" vectornator:shadowOpacity="0.333" vectornator:shadowRadius="10"/>
<path d="M164.021 119.404L258.057 72.8613" fill="#000000" fill-rule="nonzero" filter="url(#Filter_10)" stroke="#000000" stroke-linecap="round" stroke-linejoin="round" stroke-width="10" vectornator:shadowAngle="1.5708" vectornator:shadowColor="#000000" vectornator:shadowOffset="10" vectornator:shadowOpacity="0.333" vectornator:shadowRadius="10"/>
<path d="M161.513 117.732L77.5771 65.3789" fill="#000000" fill-rule="nonzero" filter="url(#Filter_11)" stroke="#000000" stroke-linecap="round" stroke-linejoin="round" stroke-width="10" vectornator:shadowAngle="1.5708" vectornator:shadowColor="#000000" vectornator:shadowOffset="10" vectornator:shadowOpacity="0.333" vectornator:shadowRadius="10"/>
<path d="M78.5625 65.1264L162.172 23.3215" fill="#000000" fill-rule="nonzero" filter="url(#Filter_12)" stroke="#000000" stroke-linecap="round" stroke-linejoin="round" stroke-width="10" vectornator:shadowAngle="1.5708" vectornator:shadowColor="#000000" vectornator:shadowOffset="10" vectornator:shadowOpacity="0.333" vectornator:shadowRadius="10"/>
<path d="M162.852 23.6541L257.732 72.4367" fill="#000000" fill-rule="nonzero" filter="url(#Filter_13)" stroke="#000000" stroke-linecap="round" stroke-linejoin="round" stroke-width="10" vectornator:shadowAngle="1.5708" vectornator:shadowColor="#000000" vectornator:shadowOffset="10" vectornator:shadowOpacity="0.333" vectornator:shadowRadius="10"/>
<path d="M259.46 73.4456C259.46 73.4456 260.603 79.2848 261.925 87.3065C262.339 89.8231 262.772 92.5545 263.192 95.3879C264.085 101.411 264.923 107.895 265.42 113.754C266.416 125.489 265.589 132.074 262.828 137.479" fill="#000000" fill-rule="nonzero" filter="url(#Filter_14)" stroke="#000000" stroke-linecap="round" stroke-linejoin="round" stroke-width="10" vectornator:shadowAngle="1.5708" vectornator:shadowColor="#000000" vectornator:shadowOffset="10" vectornator:shadowOpacity="0.333" vectornator:shadowRadius="10"/>
<path d="M97.0805 69.3843C102.204 66.8227 107.159 64.0532 112.248 61.5088C115.083 60.0911 118.346 59.3468 121.29 58.0086C130.274 53.925 139.633 49.6862 148.125 44.5912C153.309 41.481 158.781 39.1173 164.168 36.424C166.014 35.5008 167.818 34.3478 169.71 33.5072C170.504 33.154 172.043 32.3405 172.043 32.3405C172.043 32.3405 170.654 33.0724 170.001 33.5072C168.614 34.4319 167.031 34.9623 165.626 35.8407C161.892 38.1744 158.304 40.5258 154.542 42.8411C143.934 49.3689 133.527 56.5165 122.749 62.6755C118.763 64.9529 114.509 67.9548 110.206 69.6759C108.878 70.2071 107.351 70.9808 106.123 71.7177C105.706 71.9678 105.391 72.3754 104.956 72.5928C104.761 72.69 104.155 72.8845 104.373 72.8845C108.226 72.8845 114.675 68.3956 118.373 67.0508C131.289 62.3542 143.981 55.42 155.709 48.3831C160.71 45.3821 165.884 42.6281 170.876 39.6326C172.655 38.5654 174.578 37.9273 176.418 37.0074C176.853 36.79 177.15 36.3498 177.585 36.1324C177.78 36.0351 178.322 35.6869 178.168 35.8407C176.079 37.9301 172.638 38.7492 170.293 40.5076C163.44 45.6476 156.631 50.796 149.583 55.6751C144.019 59.5278 137.477 62.1297 132.082 66.1757C127.75 69.4253 121.766 71.3342 116.915 73.7595C115.233 74.6007 113.465 75.8368 111.956 76.968C111.435 77.3594 110.206 77.8431 110.206 77.8431C110.206 77.8431 112.364 76.9101 113.415 76.3847C115.404 75.3899 117.126 74.5314 119.248 73.7595C125.757 71.3927 131.937 67.9354 138.208 65.009C144.815 61.9256 150.398 57.1637 156.876 53.925C161.687 51.5194 167.144 49.6888 171.751 46.9246C174.235 45.4342 177.275 43.7347 179.335 41.6743C180.296 40.714 181.325 38.7679 182.835 38.4658C185.261 37.9807 187.747 41.2777 190.127 41.6743C195.981 42.6499 202.345 47.5395 207.045 51.2999C210.893 54.3784 216.851 56.8444 221.338 58.8837C226.873 61.3997 231.795 65.2833 237.672 67.6342C239.588 68.4006 241.521 69.1091 243.506 69.6759C244.427 69.9393 245.237 70.3277 246.131 70.551C246.342 70.6037 246.783 70.6364 246.714 70.8427C246.313 72.0457 242.711 73.1224 241.755 73.7595C236.578 77.2109 229.949 77.9642 224.546 81.0516C217.725 84.9493 210.334 87.6727 203.545 91.5522C196.242 95.7255 189.121 99.2469 181.377 102.344C178.913 103.33 176.758 105.153 174.668 106.72C172.899 108.046 170.512 108.652 168.543 109.637C167.722 110.047 166.791 111.212 165.918 111.387C164.947 111.581 157.509 107.036 155.709 106.136C152.809 104.686 148.964 103.703 146.375 101.761C142.961 99.2006 139.612 96.7615 136.166 94.1773C133.874 92.4581 131.131 91.3164 128.874 89.5104C128.13 88.915 127.046 88.7995 126.249 88.3437C125.122 87.6996 124.985 87.0801 124.207 86.3019C123.304 85.3984 121.276 84.8366 120.123 84.2601C119.102 83.7492 117.981 83.2279 116.915 82.8017C116.429 82.6072 114.949 82.3453 115.457 82.2183C120.343 80.9968 123.702 78.0594 128.291 76.093C132.956 74.0934 138.058 72.8137 142.583 70.551C145.527 69.0791 149.012 67.2604 151.625 65.3007C153.386 63.98 154.901 62.294 156.876 61.2171C159.627 59.7165 162.383 58.2125 165.043 56.5502C167.733 54.8689 170.972 53.4884 173.502 51.5916C176.417 49.4049 179.31 45.6462 183.127 44.8829C185.324 44.4435 190.624 49.6181 193.044 50.4248C198.39 52.2068 203.352 53.3425 208.212 56.2585C210.283 57.5013 211.658 59.4822 213.462 60.9254C215.864 62.8471 218.563 64.4967 221.338 65.8841C223.776 67.1032 226.865 68.1409 229.505 68.8009C230.025 68.9309 231.819 69.0737 232.13 69.3843C232.267 69.5218 232.267 69.8301 232.13 69.9676C230.607 71.4901 227.402 72.4773 225.421 73.4678C217.921 77.218 209.473 78.5253 202.086 82.2183C193.348 86.5875 185.074 91.4211 177.002 96.8025C174.943 98.1752 172.562 99.1117 170.585 100.594C168.855 101.891 168.24 103.416 165.918 103.803C163.172 104.261 162.216 102.367 159.792 101.761C159.433 101.671 156.478 101.337 156.001 101.178C154.118 100.55 152.329 98.2781 150.75 97.0942C145.997 93.5294 138.851 90.001 133.249 87.7603C132.294 87.3783 128.603 85.6555 129.166 83.9684C129.222 83.8003 132.067 83.1356 132.958 82.8017C135.549 81.8298 138.127 80.6812 140.541 79.3015C144.917 76.8012 148.843 73.5416 153.084 70.8427C157.847 67.8113 163.465 65.506 168.543 62.9672C172.878 60.7998 175.989 58.4379 179.335 55.0918C180.298 54.1285 182.003 53.2163 183.127 52.4666C183.127 52.4665 184.585 51.7375 184.877 51.5916C185.072 51.4943 185.655 51.2027 185.461 51.2999C176.644 55.708 169.743 64.0361 161.834 69.9676C160.019 71.3293 157.732 71.9837 156.001 73.4678C152.847 76.1709 149.586 78.4824 146.375 81.0516C145.061 82.1028 143.461 83.0887 142.583 84.5518C142.471 84.7382 142.076 85.1082 142.291 85.1352C146.375 85.6456 151.957 81.3383 155.125 79.3015C162.024 74.8669 168.806 70.3933 175.835 66.1757C179.65 63.8867 183.741 62.1097 187.502 59.7587C189.025 58.8073 190.543 58.2383 192.169 57.4252C192.364 57.328 192.753 57.1336 192.753 57.1336C192.753 57.1336 191.948 57.4757 191.586 57.7169C190.419 58.4947 189.271 59.3016 188.086 60.0504C185.985 61.3771 183.769 62.5155 181.669 63.8423C178.924 65.5757 176.655 68.0401 174.085 69.9676C170.225 72.8623 166.088 75.6294 162.126 78.4264C158.536 80.9608 155.49 83.312 152.5 86.3019C152.08 86.7225 150.503 87.0627 150.75 88.052C151.148 89.6424 153.81 87.3753 155.709 86.3019C158.25 84.8658 160.79 83.4282 163.293 81.9266C172.359 76.4866 180.984 70.316 189.544 64.134C191.969 62.383 194.433 60.8144 197.128 59.467C197.831 59.1152 198.454 59.0627 199.17 58.8837C199.591 58.7782 200.644 57.9928 200.336 58.3003C196.932 61.7042 192.088 63.9587 188.377 67.0508C181.249 72.9907 174.332 79.0458 167.084 84.8435C164.559 86.8639 162.253 89.4151 159.792 91.2605C159.191 91.7115 158.649 92.2642 158.042 92.7189C157.868 92.8494 157.362 92.8162 157.459 93.0106C157.853 93.7981 159.297 93.1127 160.084 92.7189C163.066 91.2281 165.964 89.1647 168.835 87.4686C178.517 81.747 187.424 74.7322 196.544 68.2175C199.209 66.3143 202.21 64.9347 205.003 63.2589C205.962 62.6838 206.66 62.5762 207.628 62.0922C208.063 61.8748 208.795 60.731 208.795 61.2171C208.795 61.4921 208.441 61.6479 208.212 61.8005C205.93 63.3215 203.736 64.8435 201.503 66.4674C200.26 67.3716 198.99 68.2398 197.711 69.0926C190.325 74.0171 184.197 80.196 177.293 85.7185C174.318 88.0988 171.495 90.6491 168.543 93.0106C167.703 93.6826 167.321 94.5246 166.501 95.3441C166.157 95.6878 165.154 96.3929 165.626 96.5108C167.546 96.9908 172.442 93.4506 173.793 92.7189C175.055 92.0352 176.333 91.3786 177.585 90.6771C184.468 86.8225 191.411 83.1256 198.295 79.3015C203.6 76.354 209.613 73.3741 215.212 71.1344C215.745 70.9214 219.879 69.2045 219.879 68.8009C219.879 67.871 213.885 67.6342 212.587 67.6342C211.025 67.6342 208.508 67.1946 207.045 67.9258C204.191 69.3527 202.522 73.2363 200.045 75.2179C199.779 75.4303 196.544 76.6689 196.544 76.968C196.544 77.9831 198.544 76.5275 199.461 76.093C200.523 75.5901 201.619 75.16 202.67 74.6346C205.736 73.1013 208.759 71.27 211.42 69.0926C211.925 68.6796 212.928 67.5007 212.295 67.3425C211.599 67.1684 204.76 72.8358 203.545 74.0512C203.081 74.5149 201.503 77.1516 201.503 75.8013" fill="#000000" fill-rule="nonzero" filter="url(#Filter_15)" stroke="#000000" stroke-linecap="round" stroke-linejoin="round" stroke-width="10" vectornator:shadowAngle="1.5708" vectornator:shadowColor="#000000" vectornator:shadowOffset="10" vectornator:shadowOpacity="0.333" vectornator:shadowRadius="10"/>
<path d="M161.951 29.8711C161.394 30.9854 158.84 31.3861 157.626 31.9067C154.52 33.2378 151.779 35.4663 148.72 36.9958C145.705 38.5034 143.01 40.7051 140.068 42.3394C138.34 43.2998 136.142 43.6265 134.47 44.6295C132.325 45.9164 130.3 47.2509 128.109 48.4464C120.963 52.3439 112.841 55.0114 105.971 59.1335C102.591 61.1614 99.0214 63.7455 95.284 65.2405C93.5263 65.9435 92.1293 67.9383 90.1948 66.0038" fill="#000000" fill-rule="nonzero" filter="url(#Filter_16)" stroke="#000000" stroke-linecap="round" stroke-linejoin="round" stroke-width="10" vectornator:shadowAngle="1.5708" vectornator:shadowColor="#000000" vectornator:shadowOffset="10" vectornator:shadowOpacity="0.333" vectornator:shadowRadius="10"/>
<g fill="#000000" filter="url(#Filter_17)" stroke="none" vectornator:shadowAngle="1.5708" vectornator:shadowColor="#000000" vectornator:shadowOffset="10" vectornator:shadowOpacity="0.333" vectornator:shadowRadius="10">
<path d="M16.8125 166.405L92.9154 166.405L92.9154 183.04L64.807 183.04L64.807 260.354L45.0483 260.354L45.0483 183.04L16.8125 183.04L16.8125 166.405Z" fill="#000000"/>
<path d="M164.589 228.677L164.589 190.88L183.01 190.88L183.01 260.354L165.354 260.354L165.354 250.539C165.184 250.751 164.759 251.388 164.079 252.451C163.4 253.513 162.592 254.448 161.657 255.255C158.811 257.805 156.059 259.547 153.403 260.482C150.748 261.416 147.635 261.884 144.066 261.884C133.783 261.884 126.857 258.187 123.287 250.794C121.29 246.714 120.292 240.702 120.292 232.756L120.292 190.88L138.903 190.88L138.903 232.756C138.903 236.708 139.371 239.682 140.305 241.679C141.963 245.206 145.213 246.969 150.057 246.969C156.261 246.969 160.51 244.462 162.805 239.448C163.995 236.729 164.589 233.138 164.589 228.677Z" fill="#000000"/>
<path d="M268.897 262.967C255.385 262.967 244.762 258.633 237.028 249.965C229.295 241.254 225.428 229.314 225.428 214.144C225.428 197.742 229.826 185.101 238.622 176.22C246.27 168.487 256.001 164.62 267.814 164.62C283.621 164.62 295.178 169.804 302.487 180.172C306.524 185.994 308.691 191.836 308.988 197.7L289.357 197.7C288.082 193.196 286.446 189.797 284.449 187.502C280.88 183.423 275.59 181.383 268.578 181.383C261.44 181.383 255.81 184.262 251.688 190.02C247.566 195.777 245.505 203.925 245.505 214.463C245.505 225.001 247.683 232.894 252.039 238.142C256.394 243.389 261.928 246.013 268.642 246.013C275.526 246.013 280.774 243.761 284.385 239.257C286.383 236.835 288.04 233.202 289.357 228.358L308.797 228.358C307.097 238.598 302.752 246.927 295.763 253.343C288.773 259.759 279.818 262.967 268.897 262.967Z" fill="#000000"/>
</g>
<path d="M98.5487 107.617C98.5487 109.613 97.9778 111.363 98.1219 113.38C98.3858 117.074 99.6159 120.739 99.6159 124.478C99.6159 126.348 99.2369 130.075 100.683 131.521C102.079 132.917 105.122 132.937 106.872 133.228C110.405 133.817 113.673 135.996 117.117 136.857C120.903 137.803 123.982 139.888 127.361 141.765C131.413 144.016 135.745 145.771 139.74 148.168C141.303 149.106 142.728 150.473 144.435 151.156C147.242 152.279 150.367 154.271 152.759 156.065C153.324 156.489 155.192 158.157 155.96 157.772C158.116 156.694 159.552 153.692 161.509 152.223C164.294 150.135 168.432 147.932 171.754 147.101C173.584 146.643 175.611 146.666 177.303 145.82C181.773 143.586 185.057 140.712 189.895 138.777C194.201 137.055 199.306 135.828 203.768 134.936C207.398 134.21 210.82 131.215 214.653 130.667C217.846 130.211 220.973 128.898 224.257 128.533C225.118 128.437 226.765 128.585 227.458 127.893C228.712 126.639 230.499 119.945 230.873 118.075C231.014 117.369 231.213 110.731 231.086 110.605C230.731 110.249 230.353 111.296 230.019 111.672C228.468 113.418 227.139 115.157 225.751 117.008C223.549 119.944 219.379 122.246 215.933 123.624C214.275 124.287 212.151 124.397 210.384 124.691C208.447 125.014 206.249 126.135 204.408 126.825C200.619 128.246 197.438 131.002 193.737 132.588C189.756 134.294 185.388 136.435 181.145 137.283C180.254 137.461 179.186 138.415 178.37 138.777C174.619 140.444 169.559 142.46 165.565 143.259C163.551 143.662 161.89 143.023 160.229 142.192C158.523 141.339 155.695 141.5 154.253 140.058C153.074 138.878 151.625 137.594 150.198 136.643C147.268 134.69 143.569 133.329 140.38 131.734C136.679 129.884 133.63 127.001 130.136 124.905C126.436 122.685 122.585 120.945 118.611 119.356C115.366 118.058 111.067 115.844 108.366 113.593C107.609 112.962 106.463 110.724 105.592 111.886C104.538 113.29 105.715 120.987 107.726 121.49C109.874 122.027 112.005 122.134 114.129 122.984C117.19 124.208 120.603 125.986 123.733 126.612C125.424 126.95 127.282 127.232 128.855 128.106C132.068 129.891 135.668 132.155 139.1 133.442C142.807 134.832 145.388 136.237 148.49 138.564C150.978 140.429 158.948 143.385 158.948 147.101C158.948 148.58 154.467 149.022 153.399 148.808C151.599 148.448 149.82 145.817 148.49 144.753C146.626 143.261 143.793 141.978 141.661 140.912C137.284 138.723 132.781 137.236 128.215 135.576C120.71 132.847 114.127 126.399 105.592 126.399" fill="none" filter="url(#Filter_18)" stroke="#000000" stroke-linecap="round" stroke-linejoin="round" stroke-width="10" vectornator:shadowAngle="1.5708" vectornator:shadowColor="#000000" vectornator:shadowOffset="10" vectornator:shadowOpacity="0.333" vectornator:shadowRadius="10"/>
</g>
</svg>
